# This file uses centimeters as units for non-parametric coordinates.

mtllib bg plane.mtl
g default
v 328.225705 -1302.322528 -918.970871
v 489.443285 -1344.308342 -752.895806
v 620.139295 -1378.797597 -560.363028
v 716.425620 -1404.319144 -347.246530
v 775.398117 -1419.950226 -120.048545
v 795.257583 -1425.214124 114.299289
v 775.398100 -1419.950226 348.647193
v 716.425620 -1404.319144 575.845108
v 620.139295 -1378.797597 788.961606
v 489.443250 -1344.308342 981.494455
v 328.225705 -1302.322528 1147.569449
v 379.252619 -1087.937124 -918.970871
v 542.423189 -1121.546511 -752.895806
v 674.725426 -1149.245473 -560.363028
v 772.174325 -1169.904306 -347.246530
v 831.839496 -1182.660832 -120.048545
v 851.928906 -1186.974385 114.299289
v 831.839488 -1182.660762 348.647193
v 772.174325 -1169.904306 575.845108
v 674.725426 -1149.245473 788.961606
v 542.423154 -1121.546511 981.494455
v 379.252619 -1087.937124 1147.569449
v 419.197063 -870.607597 -918.970871
v 583.885709 -895.750915 -752.895806
v 717.442006 -916.584753 -560.363028
v 815.827869 -932.186772 -347.246530
v 876.072283 -941.846917 -120.048545
v 896.357673 -945.117882 114.299289
v 876.072265 -941.846917 348.647193
v 815.827869 -932.186772 575.845108
v 717.442006 -916.584753 788.961606
v 583.885673 -895.750915 981.494455
v 419.197063 -870.607597 1147.569449
v 447.890841 -650.908032 -918.970871
v 613.658682 -667.518135 -752.895806
v 748.113046 -681.431321 -560.363028
v 847.173621 -691.934760 -347.246530
v 907.836698 -698.472794 -120.048545
v 928.264001 -700.692504 114.299289
v 907.836685 -698.472794 348.647193
v 847.173621 -691.934760 575.845108
v 748.113046 -681.431321 788.961606
v 613.658647 -667.518135 981.494455
v 447.890841 -650.908032 1147.569449
v 465.195629 -429.422145 -918.970871
v 631.600801 -437.454686 -752.895806
v 766.594850 -444.410033 -560.363028
v 866.066112 -449.786846 -347.246530
v 926.986164 -453.185292 -120.048545
v 947.500934 -454.347760 114.299289
v 926.986150 -453.185292 348.647193
v 866.066112 -449.786846 575.845108
v 766.594850 -444.410033 788.961606
v 631.600766 -437.454686 981.494455
v 465.195629 -429.422145 1147.569449
v 471.003424 -206.741474 -918.970871
v 637.602345 -206.174956 -752.895806
v 772.776277 -206.153814 -560.363028
v 872.393087 -206.389631 -347.246530
v 933.407733 -206.639402 -120.048545
v 953.955288 -206.741527 114.299289
v 933.407720 -206.639402 348.647193
v 872.393087 -206.389631 575.845108
v 772.776277 -206.153814 788.961606
v 637.602310 -206.174956 981.494455
v 471.003424 -206.741474 1147.569449
v 465.236940 16.536046 -918.970871
v 631.585568 25.700238 -752.895806
v 766.579073 32.697880 -560.363028
v 866.075914 37.603749 -347.246530
v 927.022513 40.503382 -120.048545
v 947.548086 41.461871 114.299289
v 927.022500 40.503382 348.647193
v 866.075914 37.603749 575.845108
v 766.579073 32.697880 788.961606
v 631.585533 25.700238 981.494455
v 465.236940 16.536046 1147.569449
v 447.850126 239.807464 -918.970871
v 613.505053 257.544990 -752.895806
v 747.958311 271.500576 -560.363028
v 847.069973 281.535124 -347.246530
v 907.786080 287.576434 -120.048545
v 928.234961 289.593024 114.299289
v 907.786067 287.576434 348.647193
v 847.069973 281.535124 575.845108
v 747.958311 271.500576 788.961606
v 613.505018 257.544990 981.494455
v 447.850126 239.807464 1147.569449
v 418.828381 462.467087 -918.970871
v 583.348024 488.730771 -752.895806
v 716.902654 509.607149 -560.363028
v 815.364937 524.743683 -347.246530
v 875.688710 533.910683 -120.048545
v 896.006387 536.979969 114.299289
v 875.688692 533.910683 348.647193
v 815.364937 524.743683 575.845108
v 716.902654 509.607149 788.961606
v 583.347989 488.730771 981.494455
v 418.828381 462.467087 1147.569449
v 378.188692 683.907362 -918.970871
v 541.134557 718.627289 -752.895806
v 673.434530 746.368931 -560.363028
v 770.984989 766.567192 -347.246530
v 830.755624 778.835418 -120.048545
v 850.887933 782.949256 114.299289
v 830.755607 778.835418 348.647193
v 770.984989 766.567192 575.845108
v 673.434530 746.368931 788.961606
v 541.134521 718.627289 981.494455
v 378.188692 683.907362 1147.569449
v 325.863458 903.924575 -918.970871
v 486.915580 946.612795 -752.895806
v 617.610327 981.137640 -560.363028
v 713.988910 1006.343786 -347.246530
v 773.047085 1021.680595 -120.048545
v 792.940386 1026.828105 114.299289
v 773.047085 1021.680595 348.647193
v 713.988910 1006.343786 575.845108
v 617.610327 981.137640 788.961606
v 486.915545 946.612795 981.494455
v 325.863458 903.924575 1147.569449
vt 0.000000 0.000000
vt 0.100000 0.000000
vt 0.200000 0.000000
vt 0.300000 0.000000
vt 0.400000 0.000000
vt 0.500000 0.000000
vt 0.600000 0.000000
vt 0.700000 0.000000
vt 0.800000 0.000000
vt 0.900000 0.000000
vt 1.000000 0.000000
vt 0.000000 0.100000
vt 0.100000 0.100000
vt 0.200000 0.100000
vt 0.300000 0.100000
vt 0.400000 0.100000
vt 0.500000 0.100000
vt 0.600000 0.100000
vt 0.700000 0.100000
vt 0.800000 0.100000
vt 0.900000 0.100000
vt 1.000000 0.100000
vt 0.000000 0.200000
vt 0.100000 0.200000
vt 0.200000 0.200000
vt 0.300000 0.200000
vt 0.400000 0.200000
vt 0.500000 0.200000
vt 0.600000 0.200000
vt 0.700000 0.200000
vt 0.800000 0.200000
vt 0.900000 0.200000
vt 1.000000 0.200000
vt 0.000000 0.300000
vt 0.100000 0.300000
vt 0.200000 0.300000
vt 0.300000 0.300000
vt 0.400000 0.300000
vt 0.500000 0.300000
vt 0.600000 0.300000
vt 0.700000 0.300000
vt 0.800000 0.300000
vt 0.900000 0.300000
vt 1.000000 0.300000
vt 0.000000 0.400000
vt 0.100000 0.400000
vt 0.200000 0.400000
vt 0.300000 0.400000
vt 0.400000 0.400000
vt 0.500000 0.400000
vt 0.600000 0.400000
vt 0.700000 0.400000
vt 0.800000 0.400000
vt 0.900000 0.400000
vt 1.000000 0.400000
vt 0.000000 0.500000
vt 0.100000 0.500000
vt 0.200000 0.500000
vt 0.300000 0.500000
vt 0.400000 0.500000
vt 0.500000 0.500000
vt 0.600000 0.500000
vt 0.700000 0.500000
vt 0.800000 0.500000
vt 0.900000 0.500000
vt 1.000000 0.500000
vt 0.000000 0.600000
vt 0.100000 0.600000
vt 0.200000 0.600000
vt 0.300000 0.600000
vt 0.400000 0.600000
vt 0.500000 0.600000
vt 0.600000 0.600000
vt 0.700000 0.600000
vt 0.800000 0.600000
vt 0.900000 0.600000
vt 1.000000 0.600000
vt 0.000000 0.700000
vt 0.100000 0.700000
vt 0.200000 0.700000
vt 0.300000 0.700000
vt 0.400000 0.700000
vt 0.500000 0.700000
vt 0.600000 0.700000
vt 0.700000 0.700000
vt 0.800000 0.700000
vt 0.900000 0.700000
vt 1.000000 0.700000
vt 0.000000 0.800000
vt 0.100000 0.800000
vt 0.200000 0.800000
vt 0.300000 0.800000
vt 0.400000 0.800000
vt 0.500000 0.800000
vt 0.600000 0.800000
vt 0.700000 0.800000
vt 0.800000 0.800000
vt 0.900000 0.800000
vt 1.000000 0.800000
vt 0.000000 0.900000
vt 0.100000 0.900000
vt 0.200000 0.900000
vt 0.300000 0.900000
vt 0.400000 0.900000
vt 0.500000 0.900000
vt 0.600000 0.900000
vt 0.700000 0.900000
vt 0.800000 0.900000
vt 0.900000 0.900000
vt 1.000000 0.900000
vt 0.000000 1.000000
vt 0.100000 1.000000
vt 0.200000 1.000000
vt 0.300000 1.000000
vt 0.400000 1.000000
vt 0.500000 1.000000
vt 0.600000 1.000000
vt 0.700000 1.000000
vt 0.800000 1.000000
vt 0.900000 1.000000
vt 1.000000 1.000000
vn -0.686946 0.163439 0.708091
vn -0.745921 0.177426 0.641967
vn -0.750248 0.157971 0.642008
vn -0.690835 0.145550 0.708211
vn -0.842956 0.200463 0.499239
vn -0.847824 0.178482 0.499339
vn -0.914389 0.217464 0.341470
vn -0.919700 0.193633 0.341553
vn -0.958127 0.227894 0.173367
vn -0.963716 0.202929 0.173409
vn -0.972856 0.231410 0.000000
vn -0.978539 0.206063 -0.000000
vn -0.958127 0.227894 -0.173367
vn -0.963716 0.202929 -0.173409
vn -0.914389 0.217464 -0.341470
vn -0.919700 0.193633 -0.341553
vn -0.842956 0.200463 -0.499239
vn -0.847823 0.178482 -0.499339
vn -0.745921 0.177426 -0.641967
vn -0.750248 0.157971 -0.642008
vn -0.686946 0.163439 -0.708091
vn -0.690835 0.145550 -0.708211
vn -0.757426 0.118846 0.642013
vn -0.697452 0.109518 0.708213
vn -0.855939 0.134279 0.499337
vn -0.928506 0.145695 0.341541
vn -0.972941 0.152709 0.173398
vn -0.987903 0.155075 -0.000000
vn -0.972941 0.152709 -0.173398
vn -0.928506 0.145695 -0.341541
vn -0.855939 0.134279 -0.499338
vn -0.757426 0.118846 -0.642013
vn -0.697452 0.109518 -0.708213
vn -0.762566 0.079402 0.642018
vn -0.702192 0.073192 0.708216
vn -0.861748 0.089712 0.499342
vn -0.934810 0.097354 0.341544
vn -0.979549 0.102057 0.173400
vn -0.994614 0.103646 -0.000000
vn -0.979549 0.102057 -0.173400
vn -0.934810 0.097354 -0.341545
vn -0.861748 0.089712 -0.499342
vn -0.762566 0.079402 -0.642019
vn -0.702192 0.073192 -0.708216
vn -0.765654 0.039745 0.642024
vn -0.705041 0.036670 0.708218
vn -0.865238 0.044904 0.499347
vn -0.938599 0.048752 0.341548
vn -0.983523 0.051132 0.173401
vn -0.998650 0.051938 -0.000000
vn -0.983523 0.051132 -0.173401
vn -0.938599 0.048752 -0.341548
vn -0.865238 0.044904 -0.499347
vn -0.765654 0.039745 -0.642024
vn -0.705041 0.036670 -0.708218
vn -0.766680 -0.000017 0.642029
vn -0.705991 0.000049 0.708220
vn -0.866399 -0.000024 0.499352
vn -0.939863 0.000019 0.341551
vn -0.984851 0.000070 0.173403
vn -1.000000 0.000091 -0.000000
vn -0.984851 0.000070 -0.173403
vn -0.939863 0.000019 -0.341551
vn -0.866400 -0.000024 -0.499352
vn -0.766680 -0.000017 -0.642029
vn -0.705991 0.000049 -0.708220
vn -0.765643 -0.039779 0.642034
vn -0.705041 -0.036571 0.708223
vn -0.865230 -0.044951 0.499356
vn -0.938599 -0.048713 0.341555
vn -0.983530 -0.050992 0.173405
vn -0.998660 -0.051755 -0.000000
vn -0.983530 -0.050992 -0.173405
vn -0.938599 -0.048713 -0.341555
vn -0.865230 -0.044951 -0.499356
vn -0.765643 -0.039779 -0.642034
vn -0.705041 -0.036571 -0.708223
vn -0.762545 -0.079433 0.642040
vn -0.702193 -0.073092 0.708225
vn -0.861732 -0.089757 0.499361
vn -0.934809 -0.097313 0.341558
vn -0.979563 -0.101916 0.173407
vn -0.994633 -0.103462 -0.000000
vn -0.979563 -0.101916 -0.173407
vn -0.934809 -0.097313 -0.341558
vn -0.861732 -0.089757 -0.499361
vn -0.762545 -0.079433 -0.642040
vn -0.702193 -0.073092 -0.708225
vn -0.757395 -0.118871 0.642045
vn -0.697454 -0.109415 0.708228
vn -0.855916 -0.134320 0.499365
vn -0.928505 -0.145651 0.341561
vn -0.972961 -0.152565 0.173408
vn -0.987932 -0.154889 -0.000000
vn -0.972961 -0.152565 -0.173408
vn -0.928505 -0.145651 -0.341561
vn -0.855916 -0.134320 -0.499365
vn -0.757395 -0.118871 -0.642045
vn -0.697454 -0.109415 -0.708228
vn -0.750187 -0.157997 0.642072
vn -0.690822 -0.145464 0.708241
vn -0.847797 -0.178521 0.499370
vn -0.919703 -0.193596 0.341565
vn -0.963742 -0.202804 0.173410
vn -0.978573 -0.205900 -0.000000
vn -0.963742 -0.202804 -0.173410
vn -0.919703 -0.193596 -0.341565
vn -0.847797 -0.178521 -0.499370
vn -0.750187 -0.157997 -0.642072
vn -0.690822 -0.145464 -0.708241
vn -0.745913 -0.177385 0.641988
vn -0.686921 -0.163364 0.708133
vn -0.842930 -0.200424 0.499299
vn -0.914389 -0.217355 0.341540
vn -0.958166 -0.227703 0.173406
vn -0.972910 -0.231184 -0.000000
vn -0.958166 -0.227703 -0.173406
vn -0.914389 -0.217355 -0.341540
vn -0.842930 -0.200424 -0.499299
vn -0.745913 -0.177385 -0.641988
vn -0.686921 -0.163364 -0.708133
s 1
g pPlane1
usemtl lambert34SG
f 1/1/1 2/2/2 13/13/3 12/12/4
f 2/2/2 3/3/5 14/14/6 13/13/3
f 3/3/5 4/4/7 15/15/8 14/14/6
f 4/4/7 5/5/9 16/16/10 15/15/8
f 5/5/9 6/6/11 17/17/12 16/16/10
f 6/6/11 7/7/13 18/18/14 17/17/12
f 7/7/13 8/8/15 19/19/16 18/18/14
f 8/8/15 9/9/17 20/20/18 19/19/16
f 9/9/17 10/10/19 21/21/20 20/20/18
f 10/10/19 11/11/21 22/22/22 21/21/20
f 12/12/4 13/13/3 24/24/23 23/23/24
f 13/13/3 14/14/6 25/25/25 24/24/23
f 14/14/6 15/15/8 26/26/26 25/25/25
f 15/15/8 16/16/10 27/27/27 26/26/26
f 16/16/10 17/17/12 28/28/28 27/27/27
f 17/17/12 18/18/14 29/29/29 28/28/28
f 18/18/14 19/19/16 30/30/30 29/29/29
f 19/19/16 20/20/18 31/31/31 30/30/30
f 20/20/18 21/21/20 32/32/32 31/31/31
f 21/21/20 22/22/22 33/33/33 32/32/32
f 23/23/24 24/24/23 35/35/34 34/34/35
f 24/24/23 25/25/25 36/36/36 35/35/34
f 25/25/25 26/26/26 37/37/37 36/36/36
f 26/26/26 27/27/27 38/38/38 37/37/37
f 27/27/27 28/28/28 39/39/39 38/38/38
f 28/28/28 29/29/29 40/40/40 39/39/39
f 29/29/29 30/30/30 41/41/41 40/40/40
f 30/30/30 31/31/31 42/42/42 41/41/41
f 31/31/31 32/32/32 43/43/43 42/42/42
f 32/32/32 33/33/33 44/44/44 43/43/43
f 34/34/35 35/35/34 46/46/45 45/45/46
f 35/35/34 36/36/36 47/47/47 46/46/45
f 36/36/36 37/37/37 48/48/48 47/47/47
f 37/37/37 38/38/38 49/49/49 48/48/48
f 38/38/38 39/39/39 50/50/50 49/49/49
f 39/39/39 40/40/40 51/51/51 50/50/50
f 40/40/40 41/41/41 52/52/52 51/51/51
f 41/41/41 42/42/42 53/53/53 52/52/52
f 42/42/42 43/43/43 54/54/54 53/53/53
f 43/43/43 44/44/44 55/55/55 54/54/54
f 45/45/46 46/46/45 57/57/56 56/56/57
f 46/46/45 47/47/47 58/58/58 57/57/56
f 47/47/47 48/48/48 59/59/59 58/58/58
f 48/48/48 49/49/49 60/60/60 59/59/59
f 49/49/49 50/50/50 61/61/61 60/60/60
f 50/50/50 51/51/51 62/62/62 61/61/61
f 51/51/51 52/52/52 63/63/63 62/62/62
f 52/52/52 53/53/53 64/64/64 63/63/63
f 53/53/53 54/54/54 65/65/65 64/64/64
f 54/54/54 55/55/55 66/66/66 65/65/65
f 56/56/57 57/57/56 68/68/67 67/67/68
f 57/57/56 58/58/58 69/69/69 68/68/67
f 58/58/58 59/59/59 70/70/70 69/69/69
f 59/59/59 60/60/60 71/71/71 70/70/70
f 60/60/60 61/61/61 72/72/72 71/71/71
f 61/61/61 62/62/62 73/73/73 72/72/72
f 62/62/62 63/63/63 74/74/74 73/73/73
f 63/63/63 64/64/64 75/75/75 74/74/74
f 64/64/64 65/65/65 76/76/76 75/75/75
f 65/65/65 66/66/66 77/77/77 76/76/76
f 67/67/68 68/68/67 79/79/78 78/78/79
f 68/68/67 69/69/69 80/80/80 79/79/78
f 69/69/69 70/70/70 81/81/81 80/80/80
f 70/70/70 71/71/71 82/82/82 81/81/81
f 71/71/71 72/72/72 83/83/83 82/82/82
f 72/72/72 73/73/73 84/84/84 83/83/83
f 73/73/73 74/74/74 85/85/85 84/84/84
f 74/74/74 75/75/75 86/86/86 85/85/85
f 75/75/75 76/76/76 87/87/87 86/86/86
f 76/76/76 77/77/77 88/88/88 87/87/87
f 78/78/79 79/79/78 90/90/89 89/89/90
f 79/79/78 80/80/80 91/91/91 90/90/89
f 80/80/80 81/81/81 92/92/92 91/91/91
f 81/81/81 82/82/82 93/93/93 92/92/92
f 82/82/82 83/83/83 94/94/94 93/93/93
f 83/83/83 84/84/84 95/95/95 94/94/94
f 84/84/84 85/85/85 96/96/96 95/95/95
f 85/85/85 86/86/86 97/97/97 96/96/96
f 86/86/86 87/87/87 98/98/98 97/97/97
f 87/87/87 88/88/88 99/99/99 98/98/98
f 89/89/90 90/90/89 101/101/100 100/100/101
f 90/90/89 91/91/91 102/102/102 101/101/100
f 91/91/91 92/92/92 103/103/103 102/102/102
f 92/92/92 93/93/93 104/104/104 103/103/103
f 93/93/93 94/94/94 105/105/105 104/104/104
f 94/94/94 95/95/95 106/106/106 105/105/105
f 95/95/95 96/96/96 107/107/107 106/106/106
f 96/96/96 97/97/97 108/108/108 107/107/107
f 97/97/97 98/98/98 109/109/109 108/108/108
f 98/98/98 99/99/99 110/110/110 109/109/109
f 100/100/101 101/101/100 112/112/111 111/111/112
f 101/101/100 102/102/102 113/113/113 112/112/111
f 102/102/102 103/103/103 114/114/114 113/113/113
f 103/103/103 104/104/104 115/115/115 114/114/114
f 104/104/104 105/105/105 116/116/116 115/115/115
f 105/105/105 106/106/106 117/117/117 116/116/116
f 106/106/106 107/107/107 118/118/118 117/117/117
f 107/107/107 108/108/108 119/119/119 118/118/118
f 108/108/108 109/109/109 120/120/120 119/119/119
f 109/109/109 110/110/110 121/121/121 120/120/120
